<svg width="142" height="66" viewBox="0 0 142 66" fill="none" xmlns="http://www.w3.org/2000/svg">
<path d="M25.1698 13.69V29.08H23.7198L14.8398 18.38V28.92H12.2898V13.69H13.7398L22.6198 24.37V13.69H25.1698Z" fill="#002D41"/>
<path d="M30.55 23.7C30.6 24.26 30.73 24.76 30.96 25.2C31.19 25.64 31.48 26 31.83 26.29C32.18 26.58 32.58 26.8 33.01 26.95C33.45 27.1 33.91 27.17 34.39 27.17C35.05 27.17 35.71 27.04 36.38 26.78C37.05 26.52 37.61 26.14 38.04 25.62H38.25L39.54 26.79V26.98C39.23 27.37 38.86 27.71 38.45 27.99C38.04 28.27 37.6 28.5 37.14 28.68C36.68 28.86 36.21 28.99 35.72 29.08C35.23 29.17 34.77 29.21 34.32 29.21C33.48 29.21 32.67 29.07 31.91 28.79C31.14 28.51 30.47 28.1 29.89 27.57C29.31 27.04 28.85 26.4 28.51 25.65C28.17 24.9 28 24.05 28 23.1C28 22.21 28.15 21.39 28.46 20.64C28.77 19.89 29.19 19.24 29.74 18.7C30.28 18.15 30.92 17.72 31.66 17.41C32.39 17.1 33.2 16.94 34.07 16.94C34.91 16.94 35.69 17.08 36.39 17.36C37.09 17.64 37.71 18.04 38.24 18.55C38.79 19.08 39.21 19.71 39.52 20.45C39.83 21.18 39.98 22 39.98 22.89C39.98 23.22 39.96 23.49 39.91 23.71H30.55V23.7ZM34.01 18.92C33.07 18.92 32.3 19.19 31.69 19.73C31.08 20.27 30.71 21.01 30.57 21.94H37.43C37.3 21.08 36.99 20.4 36.49 19.9C35.87 19.25 35.04 18.92 34.01 18.92Z" fill="#002D41"/>
<path d="M49.4199 28.12L49.3499 28.33C49.0099 28.6 48.6199 28.81 48.1799 28.96C47.7399 29.12 47.2699 29.19 46.7699 29.19C46.2399 29.19 45.7399 29.11 45.2599 28.94C44.7799 28.78 44.3699 28.53 44.0299 28.2C43.6899 27.87 43.4099 27.45 43.2099 26.95C43.0099 26.44 42.9099 25.85 42.9099 25.18V19.18H40.9199V17.21H42.9099V13.67L45.2799 13.39L45.4699 13.53V17.21H49.0299V19.2H45.4699V25.03C45.4699 25.73 45.6199 26.24 45.9299 26.54C46.2399 26.84 46.6399 27 47.1399 27C47.3599 27 47.5899 26.95 47.8399 26.86C48.0899 26.77 48.2999 26.63 48.4699 26.46L48.6799 26.55L49.4199 28.12Z" fill="#002D41"/>
<path d="M57.5499 16.93C58.4199 16.93 59.2199 17.09 59.9399 17.41C60.6599 17.73 61.2699 18.16 61.7899 18.71C62.3099 19.26 62.7099 19.9 62.9999 20.65C63.2899 21.4 63.4299 22.2 63.4299 23.06C63.4299 23.92 63.2899 24.72 62.9999 25.46C62.7099 26.2 62.2999 26.85 61.7799 27.4C61.2599 27.95 60.6399 28.39 59.9199 28.71C59.1999 29.03 58.4099 29.19 57.5499 29.19C56.6899 29.19 55.9199 29.03 55.2399 28.72C54.5599 28.4 53.9699 27.98 53.4699 27.46V28.92H51.1799V13.23L53.5399 12.95L53.7299 13.09V18.3C54.2299 17.87 54.7999 17.53 55.4499 17.29C56.0999 17.05 56.7999 16.93 57.5499 16.93ZM57.1899 27C57.7499 27 58.2599 26.9 58.7099 26.69C59.1599 26.49 59.5499 26.2 59.8699 25.84C60.1899 25.48 60.4399 25.06 60.6099 24.58C60.7799 24.1 60.8699 23.6 60.8699 23.06C60.8699 22.51 60.7799 22 60.6099 21.53C60.4399 21.06 60.1899 20.64 59.8699 20.28C59.5499 19.92 59.1599 19.64 58.7099 19.43C58.2599 19.23 57.7499 19.12 57.1899 19.12C56.6899 19.12 56.2199 19.21 55.7699 19.38C55.3299 19.55 54.9399 19.8 54.6099 20.13C54.2799 20.46 54.0199 20.87 53.8299 21.36C53.6299 21.85 53.5399 22.41 53.5399 23.06C53.5399 23.71 53.6399 24.27 53.8299 24.76C54.0199 25.25 54.2899 25.66 54.6099 25.99C54.9399 26.32 55.3199 26.57 55.7699 26.74C56.2199 26.91 56.6899 27 57.1899 27Z" fill="#002D41"/>
<path d="M67.7199 23.7C67.7699 24.26 67.8999 24.76 68.1299 25.2C68.3599 25.64 68.6499 26 68.9999 26.29C69.3499 26.58 69.7499 26.8 70.1799 26.95C70.6199 27.1 71.0799 27.17 71.5599 27.17C72.2199 27.17 72.8799 27.04 73.5499 26.78C74.2199 26.52 74.7799 26.14 75.2099 25.62H75.4199L76.7099 26.79V26.98C76.3999 27.37 76.0299 27.71 75.6199 27.99C75.2099 28.27 74.7699 28.5 74.3099 28.68C73.8499 28.86 73.3799 28.99 72.8899 29.08C72.4099 29.17 71.9399 29.21 71.4899 29.21C70.6499 29.21 69.8399 29.07 69.0799 28.79C68.3099 28.51 67.6399 28.1 67.0599 27.57C66.4799 27.04 66.0199 26.4 65.6799 25.65C65.3399 24.9 65.1699 24.05 65.1699 23.1C65.1699 22.21 65.3199 21.39 65.6299 20.64C65.9399 19.89 66.3599 19.24 66.9099 18.7C67.4499 18.15 68.0899 17.72 68.8299 17.41C69.5599 17.1 70.3699 16.94 71.2399 16.94C72.0799 16.94 72.8599 17.08 73.5599 17.36C74.2599 17.64 74.8799 18.04 75.4099 18.55C75.9599 19.08 76.3799 19.71 76.6899 20.45C76.9999 21.18 77.1499 22 77.1499 22.89C77.1499 23.22 77.1299 23.49 77.0799 23.71H67.7199V23.7ZM71.1899 18.92C70.2499 18.92 69.4799 19.19 68.8699 19.73C68.2599 20.27 67.8899 21.01 67.7499 21.94H74.6099C74.4799 21.08 74.1699 20.4 73.6699 19.9C73.0499 19.25 72.2199 18.92 71.1899 18.92Z" fill="#002D41"/>
<path d="M85.6098 16.93C86.3398 16.93 86.9998 17.05 87.5998 17.29C88.1898 17.53 88.6998 17.87 89.1198 18.3C89.5398 18.73 89.8598 19.25 90.0898 19.86C90.3198 20.47 90.4298 21.14 90.4298 21.87V28.92H87.8798V22.08C87.8798 21.19 87.6298 20.48 87.1298 19.94C86.6298 19.4 85.9398 19.13 85.0498 19.13C84.1798 19.13 83.4698 19.4 82.9298 19.94C82.3898 20.48 82.1098 21.19 82.1098 22.08V28.92H79.5598V13.23L81.9198 12.95L82.1098 13.09V18.38C82.5098 17.93 83.0098 17.57 83.5998 17.31C84.1998 17.06 84.8698 16.93 85.6098 16.93Z" fill="#002D41"/>
<path d="M95.3 23.7C95.35 24.26 95.48 24.76 95.71 25.2C95.94 25.64 96.23 26 96.58 26.29C96.93 26.58 97.33 26.8 97.76 26.95C98.2 27.1 98.66 27.17 99.14 27.17C99.8 27.17 100.46 27.04 101.13 26.78C101.8 26.52 102.36 26.14 102.79 25.62H103L104.29 26.79V26.98C103.98 27.37 103.61 27.71 103.2 27.99C102.79 28.27 102.35 28.5 101.89 28.68C101.43 28.86 100.96 28.99 100.47 29.08C99.98 29.17 99.52 29.21 99.07 29.21C98.23 29.21 97.42 29.07 96.66 28.79C95.89 28.51 95.22 28.1 94.64 27.57C94.06 27.04 93.6 26.4 93.26 25.65C92.92 24.9 92.75 24.05 92.75 23.1C92.75 22.21 92.9 21.39 93.21 20.64C93.52 19.89 93.94 19.24 94.49 18.7C95.03 18.15 95.67 17.72 96.41 17.41C97.14 17.1 97.95 16.94 98.82 16.94C99.66 16.94 100.44 17.08 101.14 17.36C101.84 17.64 102.46 18.04 102.99 18.55C103.54 19.08 103.96 19.71 104.27 20.45C104.58 21.18 104.73 22 104.73 22.89C104.73 23.22 104.71 23.49 104.66 23.71H95.3V23.7ZM98.77 18.92C97.83 18.92 97.06 19.19 96.45 19.73C95.84 20.27 95.47 21.01 95.33 21.94H102.19C102.06 21.08 101.75 20.4 101.25 19.9C100.63 19.25 99.8 18.92 98.77 18.92Z" fill="#002D41"/>
<path d="M108.92 23.7C108.97 24.26 109.1 24.76 109.33 25.2C109.56 25.64 109.85 26 110.2 26.29C110.55 26.58 110.95 26.8 111.38 26.95C111.82 27.1 112.28 27.17 112.76 27.17C113.42 27.17 114.08 27.04 114.75 26.78C115.42 26.52 115.98 26.14 116.41 25.62H116.62L117.91 26.79V26.98C117.6 27.37 117.23 27.71 116.82 27.99C116.41 28.27 115.97 28.5 115.51 28.68C115.05 28.86 114.58 28.99 114.09 29.08C113.6 29.17 113.14 29.21 112.69 29.21C111.85 29.21 111.04 29.07 110.28 28.79C109.51 28.51 108.84 28.1 108.26 27.57C107.68 27.04 107.22 26.4 106.88 25.65C106.54 24.9 106.37 24.05 106.37 23.1C106.37 22.21 106.52 21.39 106.83 20.64C107.14 19.89 107.56 19.24 108.11 18.7C108.65 18.15 109.29 17.72 110.03 17.41C110.76 17.1 111.57 16.94 112.44 16.94C113.28 16.94 114.06 17.08 114.76 17.36C115.46 17.64 116.08 18.04 116.61 18.55C117.16 19.08 117.58 19.71 117.89 20.45C118.2 21.18 118.35 22 118.35 22.89C118.35 23.22 118.33 23.49 118.28 23.71H108.92V23.7ZM112.38 18.92C111.44 18.92 110.67 19.19 110.06 19.73C109.45 20.27 109.08 21.01 108.94 21.94H115.8C115.67 21.08 115.36 20.4 114.86 19.9C114.24 19.25 113.41 18.92 112.38 18.92Z" fill="#002D41"/>
<path d="M128.03 17.49L127.4 19.36L127.19 19.45C127 19.32 126.8 19.25 126.59 19.22C126.38 19.19 126.15 19.17 125.9 19.17C125.1 19.17 124.47 19.48 124 20.09C123.53 20.71 123.3 21.48 123.3 22.42V28.91H120.75V17.21H123V18.76C123.36 18.2 123.8 17.75 124.32 17.42C124.84 17.09 125.46 16.93 126.16 16.93C126.82 16.93 127.4 17.06 127.92 17.3L128.03 17.49Z" fill="#002D41"/>
<path d="M43.2899 35.18V50.57H41.8399L32.9599 39.87V50.41H30.4099V35.18H31.8599L40.7399 45.86V35.18H43.2899Z" fill="#649BB9"/>
<path d="M48.6599 45.18C48.7099 45.74 48.8399 46.24 49.0699 46.68C49.2999 47.12 49.5899 47.48 49.9399 47.77C50.2899 48.06 50.6899 48.28 51.1199 48.43C51.5599 48.58 52.0199 48.65 52.4999 48.65C53.1599 48.65 53.8199 48.52 54.4899 48.26C55.1599 48 55.7199 47.62 56.1499 47.1H56.3599L57.6499 48.27V48.46C57.3399 48.85 56.9699 49.19 56.5599 49.47C56.1499 49.75 55.7099 49.98 55.2499 50.16C54.7899 50.34 54.3199 50.47 53.8299 50.56C53.3399 50.65 52.8799 50.69 52.4299 50.69C51.5899 50.69 50.7799 50.55 50.0199 50.27C49.2499 49.99 48.5799 49.58 47.9999 49.05C47.4199 48.52 46.9599 47.88 46.6199 47.13C46.2799 46.38 46.1099 45.53 46.1099 44.58C46.1099 43.69 46.2599 42.87 46.5699 42.12C46.8799 41.37 47.2999 40.72 47.8499 40.18C48.3899 39.63 49.0299 39.2 49.7699 38.89C50.4999 38.58 51.3099 38.42 52.1799 38.42C53.0199 38.42 53.7999 38.56 54.4999 38.84C55.1999 39.12 55.8199 39.52 56.3499 40.03C56.8999 40.56 57.3199 41.19 57.6299 41.93C57.9399 42.66 58.0899 43.48 58.0899 44.37C58.0899 44.7 58.0699 44.97 58.0199 45.19H48.6599V45.18ZM52.1299 40.4C51.1899 40.4 50.4199 40.67 49.8099 41.21C49.1999 41.75 48.8299 42.49 48.6899 43.42H55.5499C55.4199 42.56 55.1099 41.88 54.6099 41.38C53.9899 40.73 53.1599 40.4 52.1299 40.4Z" fill="#649BB9"/>
<path d="M71.96 34.57V50.4H69.66V48.92C69.18 49.45 68.6 49.87 67.93 50.19C67.26 50.51 66.49 50.68 65.61 50.68C64.75 50.68 63.96 50.52 63.23 50.2C62.5 49.88 61.88 49.44 61.36 48.89C60.84 48.34 60.43 47.69 60.14 46.95C59.85 46.21 59.71 45.41 59.71 44.55C59.71 43.69 59.85 42.89 60.14 42.14C60.43 41.39 60.84 40.74 61.36 40.2C61.88 39.65 62.51 39.22 63.23 38.9C63.96 38.58 64.75 38.42 65.61 38.42C66.36 38.42 67.05 38.54 67.69 38.78C68.33 39.02 68.9 39.35 69.4 39.79V34.71L71.77 34.43L71.96 34.57ZM65.97 48.48C66.47 48.48 66.94 48.39 67.39 48.22C67.83 48.05 68.22 47.8 68.55 47.47C68.88 47.14 69.14 46.73 69.33 46.24C69.52 45.75 69.62 45.19 69.62 44.54C69.62 43.9 69.52 43.33 69.33 42.84C69.13 42.35 68.87 41.94 68.53 41.61C68.19 41.28 67.81 41.03 67.37 40.86C66.93 40.69 66.46 40.6 65.97 40.6C65.41 40.6 64.9 40.7 64.45 40.91C64 41.11 63.61 41.4 63.28 41.76C62.95 42.12 62.7 42.54 62.53 43.01C62.36 43.48 62.27 43.99 62.27 44.54C62.27 45.07 62.36 45.58 62.53 46.06C62.7 46.54 62.95 46.96 63.28 47.32C63.61 47.68 64 47.96 64.45 48.17C64.9 48.38 65.4 48.48 65.97 48.48Z" fill="#649BB9"/>
<path d="M76.9899 45.18C77.0399 45.74 77.1699 46.24 77.3999 46.68C77.6299 47.12 77.9199 47.48 78.2699 47.77C78.6199 48.06 79.0199 48.28 79.4499 48.43C79.8899 48.58 80.3499 48.65 80.8299 48.65C81.4899 48.65 82.1499 48.52 82.8199 48.26C83.4899 48 84.0499 47.62 84.4799 47.1H84.6899L85.9799 48.27V48.46C85.6699 48.85 85.2999 49.19 84.8899 49.47C84.4799 49.75 84.0399 49.98 83.5799 50.16C83.1199 50.34 82.6499 50.47 82.1599 50.56C81.6799 50.65 81.2099 50.69 80.7599 50.69C79.9199 50.69 79.1099 50.55 78.3499 50.27C77.5799 49.99 76.9099 49.58 76.3299 49.05C75.7499 48.52 75.2899 47.88 74.9499 47.13C74.6099 46.38 74.4399 45.53 74.4399 44.58C74.4399 43.69 74.5899 42.87 74.8999 42.12C75.2099 41.37 75.6299 40.72 76.1799 40.18C76.7199 39.63 77.3599 39.2 78.0999 38.89C78.8299 38.58 79.6399 38.42 80.5099 38.42C81.3499 38.42 82.1299 38.56 82.8299 38.84C83.5299 39.12 84.1499 39.52 84.6799 40.03C85.2299 40.56 85.6499 41.19 85.9599 41.93C86.2699 42.66 86.4199 43.48 86.4199 44.37C86.4199 44.7 86.3999 44.97 86.3499 45.19H76.9899V45.18ZM80.4599 40.4C79.5199 40.4 78.7499 40.67 78.1399 41.21C77.5299 41.75 77.1599 42.49 77.0199 43.42H83.8799C83.7499 42.56 83.4399 41.88 82.9399 41.38C82.3199 40.73 81.4899 40.4 80.4599 40.4Z" fill="#649BB9"/>
<path d="M96.1098 38.97L95.4798 40.84L95.2698 40.93C95.0798 40.8 94.8798 40.73 94.6698 40.7C94.4598 40.67 94.2298 40.65 93.9798 40.65C93.1798 40.65 92.5498 40.96 92.0798 41.57C91.6098 42.19 91.3798 42.96 91.3798 43.9V50.39H88.8298V38.69H91.0798V40.24C91.4398 39.68 91.8798 39.23 92.3998 38.9C92.9198 38.57 93.5398 38.41 94.2398 38.41C94.8998 38.41 95.4798 38.54 95.9998 38.78L96.1098 38.97Z" fill="#649BB9"/>
<path d="M97.7898 34.71L100.15 34.43L100.34 34.57V50.4H97.7898V34.71Z" fill="#649BB9"/>
<path d="M108.14 38.41C108.92 38.41 109.63 38.51 110.26 38.7C110.89 38.9 111.44 39.2 111.9 39.6C112.36 40.01 112.71 40.51 112.97 41.11C113.22 41.71 113.34 42.43 113.34 43.25V50.39H111.14V49.06C110.64 49.56 110.05 49.95 109.38 50.24C108.71 50.53 108 50.67 107.25 50.67C106.56 50.67 105.94 50.58 105.38 50.4C104.82 50.22 104.33 49.97 103.93 49.64C103.52 49.31 103.21 48.91 102.99 48.45C102.77 47.98 102.66 47.47 102.66 46.9C102.66 46.31 102.78 45.77 103.02 45.28C103.26 44.8 103.6 44.38 104.04 44.03C104.48 43.68 105 43.41 105.62 43.22C106.24 43.03 106.92 42.94 107.67 42.94C108.28 42.94 108.86 43.01 109.4 43.15C109.95 43.29 110.46 43.46 110.95 43.67V42.91C110.95 42.16 110.67 41.56 110.1 41.11C109.53 40.66 108.8 40.43 107.91 40.43C107.33 40.43 106.75 40.54 106.15 40.75C105.56 40.96 105.04 41.25 104.6 41.6H104.41L103.47 40.17V39.98C104.06 39.48 104.79 39.09 105.65 38.82C106.51 38.55 107.34 38.41 108.14 38.41ZM107.72 48.81C108.13 48.81 108.52 48.75 108.92 48.62C109.31 48.49 109.65 48.32 109.95 48.1C110.25 47.88 110.49 47.61 110.68 47.29C110.87 46.97 110.97 46.62 110.98 46.25L110.96 46.11V45.52C110.63 45.35 110.2 45.17 109.66 44.99C109.12 44.81 108.55 44.72 107.94 44.72C107.1 44.72 106.42 44.92 105.91 45.31C105.4 45.7 105.15 46.22 105.15 46.86C105.15 47.45 105.38 47.93 105.85 48.28C106.31 48.63 106.93 48.81 107.72 48.81Z" fill="#649BB9"/>
<path d="M122.45 38.41C123.18 38.41 123.85 38.53 124.45 38.77C125.05 39.01 125.56 39.35 125.98 39.79C126.4 40.23 126.73 40.75 126.95 41.35C127.18 41.95 127.29 42.62 127.29 43.35V50.4H124.74V43.56C124.74 42.67 124.49 41.96 123.99 41.42C123.49 40.88 122.79 40.61 121.9 40.61C121.04 40.61 120.33 40.88 119.78 41.42C119.23 41.96 118.96 42.67 118.96 43.56V50.4H116.41V38.69H118.64V40.21C119.05 39.66 119.57 39.23 120.21 38.9C120.85 38.57 121.6 38.41 122.45 38.41Z" fill="#649BB9"/>
<path d="M141.87 34.57V50.4H139.57V48.92C139.09 49.45 138.51 49.87 137.84 50.19C137.17 50.51 136.4 50.68 135.52 50.68C134.66 50.68 133.87 50.52 133.14 50.2C132.41 49.88 131.79 49.44 131.27 48.89C130.75 48.34 130.34 47.69 130.05 46.95C129.76 46.21 129.62 45.41 129.62 44.55C129.62 43.69 129.76 42.89 130.05 42.14C130.34 41.39 130.75 40.74 131.27 40.2C131.79 39.66 132.42 39.22 133.14 38.9C133.87 38.58 134.66 38.42 135.52 38.42C136.27 38.42 136.96 38.54 137.6 38.78C138.24 39.02 138.81 39.35 139.31 39.79V34.71L141.68 34.43L141.87 34.57ZM135.87 48.48C136.37 48.48 136.84 48.39 137.29 48.22C137.73 48.05 138.12 47.8 138.45 47.47C138.78 47.14 139.04 46.73 139.23 46.24C139.42 45.75 139.52 45.19 139.52 44.54C139.52 43.9 139.42 43.33 139.23 42.84C139.03 42.35 138.77 41.94 138.43 41.61C138.09 41.28 137.71 41.03 137.27 40.86C136.83 40.69 136.36 40.6 135.87 40.6C135.31 40.6 134.8 40.7 134.35 40.91C133.9 41.11 133.51 41.4 133.18 41.76C132.85 42.12 132.6 42.54 132.43 43.01C132.26 43.48 132.17 43.99 132.17 44.54C132.17 45.07 132.26 45.58 132.43 46.06C132.6 46.54 132.85 46.96 133.18 47.32C133.51 47.68 133.9 47.96 134.35 48.17C134.8 48.38 135.31 48.48 135.87 48.48Z" fill="#649BB9"/>
<path d="M8.16988 10.62L0.129883 1.35L1.72988 0L9.76988 9.27L8.16988 10.62Z" fill="#002D41"/>
<path d="M54.99 65.64L46.96 56.37L48.56 55.01L56.59 64.28L54.99 65.64Z" fill="#649BB9"/>
</svg>
